<svg xmlns="http://www.w3.org/2000/svg" xmlns:xlink="http://www.w3.org/1999/xlink"  version="1.1" width="15.21778678894043" height="15.193525314331055" viewBox="0 0 15.21778678894043 15.193525314331055"><g><path d="M10.1538,6.421C9.7336,6.421,9.39313,6.08053,9.39313,5.66032C9.39313,4.66261,8.5829,3.85237,7.58518,3.85237C6.58747,3.85237,5.77722,4.66261,5.77722,5.66032C5.77722,5.93184,5.63285,6.18396,5.39581,6.31972C5.16093,6.45548,4.87002,6.45548,4.63514,6.31972C4.40026,6.18396,4.25372,5.93184,4.25372,5.66032C4.25372,3.82221,5.7449,2.33103,7.58302,2.33103C9.42114,2.33103,10.9123,3.8222,10.9123,5.66031C10.9166,6.08051,10.574,6.42098,10.1538,6.421L10.1538,6.421ZM12.4854,6.421C12.0652,6.421,11.7247,6.08053,11.7247,5.66032C11.7247,3.374,9.8715,1.52297,7.58735,1.52297C5.30102,1.52297,3.44999,3.37617,3.44999,5.66032C3.44999,6.08053,3.10952,6.421,2.68932,6.421C2.26911,6.421,1.92864,6.08053,1.92864,5.66032C1.92864,3.63904,3.00824,1.77076,4.758,0.75798C6.50992,-0.25266,8.66695,-0.25266,10.4189,0.75798C12.1708,1.76862,13.2483,3.6369,13.2483,5.66032C13.2461,6.08053,12.9056,6.421,12.4854,6.421L12.4854,6.421ZM14.2696,9.03701L8.37171,9.03701L8.37171,6.421C8.37171,6.0008,8.03124,5.66032,7.61104,5.66032C7.19083,5.66032,6.85036,6.0008,6.85036,6.421L6.85036,9.03701L0.950303,9.03701C0.424511,9.03701,0,9.46368,0,9.98732L0,14.2432C0,14.769,0.426667,15.1935,0.950303,15.1935L14.2675,15.1935C14.7933,15.1935,15.2178,14.7669,15.2178,14.2432L15.2178,9.98948C15.2199,9.46369,14.7933,9.03702,14.2696,9.03701L14.2696,9.03701ZM2.34666,12.877C1.92646,12.877,1.58599,12.5365,1.58599,12.1163C1.58599,11.6961,1.92646,11.3557,2.34666,11.3557C2.76686,11.3557,3.10734,11.6961,3.10734,12.1163C3.10734,12.3189,3.02761,12.5128,2.88538,12.6551C2.74101,12.7973,2.54707,12.877,2.34666,12.877ZM4.65238,12.877C4.23218,12.877,3.89171,12.5365,3.89171,12.1163C3.89171,11.6961,4.23218,11.3557,4.65238,11.3557C5.07258,11.3557,5.41305,11.6961,5.41305,12.1163C5.41305,12.3189,5.33332,12.5128,5.1911,12.6551C5.04888,12.7973,4.85494,12.877,4.65238,12.877Z" /></g></svg>
