<svg xmlns="http://www.w3.org/2000/svg" xmlns:xlink="http://www.w3.org/1999/xlink"  version="1.1" width="12.666666984558105" height="12.708569526672363" viewBox="0 0 12.666666984558105 12.708569526672363"><g><path d="M7.01367,0.218902L11.9023,3.72774C12.3822,4.07221,12.6667,4.62654,12.6667,5.2169L12.6667,10.8752C12.6667,11.8877,11.8458,12.7086,10.8333,12.7086L8.33333,12.7086L8.33333,10.0419C8.33333,8.9374,7.43783,8.0419,6.33333,8.0419C5.22883,8.0419,4.33333,8.9374,4.33333,10.0419L4.33333,12.7086L1.83333,12.7086C0.820833,12.7086,0,11.8877,0,10.8752L0,5.21707C0.00002563,4.62649,0.284546,4.07209,0.764333,3.72774L5.653,0.218902C6.0596,-0.0729673,6.60707,-0.0729673,7.01367,0.218902Z" /></g></svg>
