<svg xmlns="http://www.w3.org/2000/svg" xmlns:xlink="http://www.w3.org/1999/xlink" version="1.1" width="18" height="18"
     viewBox="0 0 18 18">
  <defs>
    <clipPath id="master_svg0_3_31153">
      <rect x="18" y="0" width="18" height="18" rx="0"/>
    </clipPath>
  </defs>
  <g transform="matrix(0,1,-1,0,18,-18)" clip-path="url(#master_svg0_3_31153)">
    <g>
      <path
        d="M26.46967,6.21967C26.76257,5.9267767,27.23743,5.9267767,27.53033,6.21967C27.53033,6.21967,32.0303,10.71967,32.0303,10.71967C32.3232,11.01257,32.3232,11.48743,32.0303,11.78033C31.737450000000003,12.07322,31.262549999999997,12.07322,30.96968,11.78033C30.96968,11.78033,27,7.81066,27,7.81066C27,7.81066,23.03033,11.78033,23.03033,11.78033C22.737435,12.07322,22.262563,12.07322,21.96967,11.78033C21.6767767,11.48743,21.6767767,11.01257,21.96967,10.71967C21.96967,10.71967,26.46967,6.21967,26.46967,6.21967C26.46967,6.21967,26.46967,6.21967,26.46967,6.21967Z"/>
    </g>
  </g>
</svg>
