<svg xmlns="http://www.w3.org/2000/svg" xmlns:xlink="http://www.w3.org/1999/xlink" version="1.1" width="11.953125953674316" height="14.828123092651367" viewBox="0 0 11.953125953674316 14.828123092651367"><g><path d="M10.95,0L1.00625,0C0.460937,0.028125,0.0234375,0.46875,0,1.01562L0,14.1875C0,14.1984,0,14.2078,0.00156248,14.2188C0.00156248,14.2234,0.00156248,14.2281,0.00312495,14.2344C0.00312495,14.2391,0.00312495,14.2453,0.00468743,14.25C0.00468743,14.2563,0.0062499,14.2625,0.0062499,14.2688C0.0062499,14.2734,0.00781238,14.2766,0.00781238,14.2812C0.00937486,14.2875,0.00937486,14.2953,0.0109373,14.3016C0.0109373,14.3047,0.0124998,14.3078,0.0124998,14.3125C0.0140623,14.3188,0.0156248,14.3266,0.0171874,14.3328C0.0187498,14.3359,0.0187498,14.3391,0.0187498,14.3422L0.0234374,14.3609C0.0249999,14.3641,0.0249999,14.3687,0.0265623,14.3719C0.0281248,14.3781,0.0296873,14.3844,0.0328124,14.3891C0.0343748,14.3937,0.0359373,14.3969,0.0374999,14.4016C0.0390624,14.4062,0.0421875,14.4125,0.0437499,14.4172L0.0484375,14.4312C0.05,14.4359,0.053125,14.4406,0.0546875,14.4453C0.05625,14.45,0.059375,14.4563,0.0609375,14.4609C0.0625,14.4641,0.0640625,14.4688,0.0671875,14.4719C0.0703125,14.4781,0.0734376,14.4828,0.075,14.4891C0.0765625,14.4922,0.078125,14.4953,0.0812501,14.4984C0.084375,14.5047,0.0875001,14.5094,0.090625,14.5156C0.0921875,14.5187,0.09375,14.5219,0.0968751,14.525C0.1,14.5312,0.104688,14.5359,0.107813,14.5422C0.109375,14.5453,0.1125,14.5484,0.114063,14.5516C0.117188,14.5578,0.121875,14.5625,0.126562,14.5687C0.129687,14.5719,0.13125,14.575,0.134375,14.5781C0.1375,14.5828,0.142187,14.5875,0.145312,14.5922C0.148437,14.5969,0.153125,14.6,0.15625,14.6047C0.159375,14.6078,0.1625,14.6125,0.165625,14.6156C0.173437,14.6234,0.179687,14.6312,0.1875,14.6391C0.195312,14.6469,0.203125,14.6531,0.210937,14.6609C0.214062,14.6641,0.21875,14.6672,0.221875,14.6703C0.226562,14.6734,0.229687,14.6781,0.234375,14.6812C0.239062,14.6859,0.24375,14.6891,0.248437,14.6922C0.251562,14.6953,0.254687,14.6969,0.257812,14.7C0.264062,14.7047,0.26875,14.7078,0.275,14.7125C0.278125,14.7141,0.28125,14.7172,0.284375,14.7187C0.290625,14.7219,0.295313,14.7266,0.301563,14.7297C0.304688,14.7312,0.307813,14.7328,0.310938,14.7359C0.317188,14.7391,0.321875,14.7422,0.328125,14.7453C0.33125,14.7469,0.334375,14.7484,0.3375,14.7516C0.34375,14.7547,0.348438,14.7578,0.354688,14.7594C0.357813,14.7609,0.362501,14.7625,0.365626,14.7656C0.370313,14.7687,0.376563,14.7703,0.381251,14.7719C0.385938,14.7734,0.390626,14.7766,0.395313,14.7781L0.409375,14.7828C0.414063,14.7844,0.420313,14.7875,0.425,14.7891C0.429688,14.7906,0.432813,14.7922,0.4375,14.7937C0.44375,14.7953,0.45,14.7984,0.454688,14.8C0.457813,14.8016,0.4625,14.8016,0.465625,14.8031L0.484375,14.8078C0.4875,14.8094,0.490625,14.8094,0.495313,14.8109C0.501563,14.8125,0.509375,14.8141,0.515625,14.8156C0.51875,14.8156,0.521875,14.8172,0.526563,14.8172C0.532813,14.8187,0.540625,14.8203,0.546875,14.8203C0.551563,14.8203,0.554688,14.8219,0.559375,14.8219C0.565625,14.8234,0.571875,14.8234,0.578125,14.8234C0.582813,14.8234,0.589063,14.825,0.59375,14.825C0.598438,14.825,0.603125,14.8266,0.609375,14.8266C0.620313,14.8266,0.629688,14.8281,0.640625,14.8281C0.651563,14.8281,0.6625,14.8281,0.671875,14.8266C0.676563,14.8266,0.68125,14.8266,0.6875,14.825C0.692188,14.825,0.698438,14.825,0.703125,14.8234C0.709375,14.8234,0.715625,14.8219,0.721875,14.8219C0.726563,14.8219,0.729688,14.8203,0.734375,14.8203C0.740625,14.8188,0.748438,14.8188,0.754688,14.8172C0.757813,14.8172,0.760938,14.8156,0.765625,14.8156C0.771875,14.8141,0.779688,14.8125,0.785938,14.8109C0.789063,14.8094,0.792188,14.8094,0.796875,14.8078L0.815625,14.8031C0.81875,14.8016,0.823438,14.8016,0.826563,14.8C0.832813,14.7984,0.839063,14.7969,0.84375,14.7937C0.848438,14.7922,0.851563,14.7906,0.85625,14.7891C0.860938,14.7875,0.867188,14.7844,0.871875,14.7828L0.885938,14.7781C0.890625,14.7766,0.895313,14.7734,0.9,14.7719C0.904688,14.7703,0.910938,14.7672,0.915625,14.7656C0.91875,14.7641,0.923438,14.7625,0.926563,14.7594C0.932813,14.7562,0.9375,14.7531,0.94375,14.7516C0.946875,14.75,0.95,14.7484,0.953125,14.7453C0.959375,14.7422,0.964063,14.7391,0.970313,14.7359C0.973438,14.7344,0.976563,14.7328,0.979688,14.7297C0.985938,14.7266,0.992188,14.7219,0.996876,14.7187C1,14.7172,1.00313,14.7141,1.00625,14.7125C1.0125,14.7094,1.01719,14.7047,1.02344,14.7C1.02656,14.6969,1.02969,14.6953,1.03281,14.6922C1.0375,14.6891,1.04219,14.6844,1.04844,14.6812C1.05313,14.6781,1.05625,14.675,1.06094,14.6703C1.06406,14.6672,1.06875,14.6641,1.07188,14.6609C1.07969,14.6547,1.0875,14.6469,1.09375,14.6391L5.96875,9.76406L10.8438,14.6391C10.9703,14.7656,11.1375,14.8281,11.3047,14.8266L11.3125,14.8266C11.6656,14.8266,11.9531,14.5406,11.9531,14.1859L11.9531,1.02813C11.9328,0.476562,11.4969,0.03125,10.95,0Z" /></g></svg>
