<svg xmlns="http://www.w3.org/2000/svg" xmlns:xlink="http://www.w3.org/1999/xlink"  version="1.1" width="14.407999992370605" height="15.200000762939453" viewBox="0 0 14.407999992370605 15.200000762939453"><g><path d="M12.96,15.2L1.376,15.2C0.576,15.2,0,14.552,0,13.824L0,6.296C0,6.008,0.216,5.792,0.504,5.792L13.904,5.792C14.192,5.792,14.408,6.008,14.408,6.296L14.408,13.824C14.408,14.624,13.76,15.2,12.96,15.2ZM4.784,13.104C5,13.104,5.144,12.96,5.144,12.744L5.144,9.84C5.144,9.624,5,9.48,4.784,9.48L2.464,9.48C2.248,9.48,2.104,9.624,2.104,9.84L2.104,12.736C2.104,12.952,2.248,13.096,2.464,13.096L4.784,13.096L4.784,13.104ZM6.592,0L6.592,4.632L0.512,4.632C0.224,4.632,0.0080002,4.344,0.152,4.056L1.456,0.584C1.6,0.216,1.96,0,2.32,0L6.592,0ZM14.12,4.056C14.192,4.344,14.048,4.632,13.76,4.632L7.752,4.632L7.752,0L11.952,0C12.312,0,12.672,0.216,12.824,0.576L14.12,4.056Z" /></g></svg>
